<svg id="Capa_1" data-name="Capa 1" xmlns="http://www.w3.org/2000/svg" viewBox="0 0 120.42 50"><defs><style>.cls-1{isolation:isolate;}</style></defs><path id="logo-arquitectura" d="M36.89.07,25.11,6.77,13.11,0,0,7.43V35.82L25,50,50,35.92V7.52h0Zm9.52,8.11L26.2,19.64V8.85l10.62-6Zm-19,27,8.3-4.71v9.42l-8.3-4.71ZM15.5,28.37l8.3-4.71v9.42Zm8.3-8.73L15.48,15l8.32-4.73Zm-1.29,2-8.22,4.67V17ZM26.2,33.08V23.64l8.32,4.73ZM13.11,2.7l9.37,5.48-9.39,5.31L3.59,8.11ZM2.4,34.45V10.15l9.5,5.39v13.6l11.9,6.75v10.7ZM26.2,46.59V37.24l8.23,4.67ZM47.6,34.54l-9.5,5.38V38.43l0-10.75,0,0v0l-10.62-6L47.62,10.22Z"/><g id="CUBO" class="cls-1"><g class="cls-1"><path d="M65.59,24.7c0-3.8,2.91-6.52,6.84-6.52a6.49,6.49,0,0,1,5.18,2.24l-1.87,1.72a4.06,4.06,0,0,0-3.17-1.47,3.86,3.86,0,0,0-4,4,3.86,3.86,0,0,0,4,4,4,4,0,0,0,3.17-1.49L77.61,29a6.92,6.92,0,0,1-12-4.27Z"/><path d="M79.36,25.46V18.4h2.91v7c0,2.39,1,3.38,2.81,3.38s2.81-1,2.81-3.38v-7h2.88v7.06c0,3.71-2.12,5.76-5.71,5.76S79.36,29.17,79.36,25.46Z"/><path d="M105.21,27.56c0,2.18-1.73,3.44-5,3.44H93.65V18.4h6.16c3.15,0,4.77,1.31,4.77,3.28a3,3,0,0,1-1.68,2.77A3.11,3.11,0,0,1,105.21,27.56Zm-8.66-7v3h2.9c1.42,0,2.19-.51,2.19-1.5s-.77-1.47-2.19-1.47Zm5.72,6.66c0-1.06-.81-1.57-2.32-1.57h-3.4v3.12H100C101.46,28.81,102.27,28.34,102.27,27.26Z"/><path d="M106.63,24.7c0-3.74,2.91-6.52,6.89-6.52s6.9,2.76,6.9,6.52-2.94,6.52-6.9,6.52S106.63,28.45,106.63,24.7Zm10.83,0a3.94,3.94,0,1,0-7.88,0,3.94,3.94,0,1,0,7.88,0Z"/></g></g></svg>